<svg xmlns="http://www.w3.org/2000/svg" viewBox="0 0 32 34" fill="none">
  <!-- Extracted from moonbeam.network Next.js bundle (svg-moonbeam-mono, official logomark) -->
  <path fill="#958FDC" d="M29.2571 25.4556C29.2616 24.7115 31.997 24.7428 31.9789 24.0457C31.9654 23.5095 30.7542 23.522 31.1349 22.3857C31.6946 20.6912 32 18.8734 32 16.982C32 7.80191 24.8366 0.359985 16 0.359985C7.16344 0.359985 0 7.80191 0 16.982C0 18.8796 0.30694 20.7022 0.871168 22.4013C0.874177 22.4091 0.905774 22.506 0.905774 22.506C1.13297 23.2594 0.00300922 23.5549 0.00300922 24.005C0.00300922 24.71 2.3833 24.6146 2.3833 25.4353C2.3833 26.1496 0.0300922 26.37 0.0300922 27.0906C0.0300922 28.0863 5.24205 27.7393 5.30826 28.5959C5.35941 29.257 3.51627 29.2961 3.50574 30.0026C3.48768 31.1296 10.6195 30.7608 10.6195 31.511C10.6195 32.0784 7.37559 31.8737 7.37559 32.5443C7.37559 33.2148 11.6457 33.64 16.3506 33.64C21.0555 33.64 24.3024 33.096 24.3024 32.5083C24.3024 31.9206 21.2737 32.0425 21.3353 31.511C21.4452 30.5857 28.1678 31.0593 28.1678 29.9886C28.1678 29.4243 26.3186 29.293 26.3788 28.685C26.463 27.8252 32 27.9534 32 27.0609C32 26.3591 29.2571 26.1871 29.2601 25.4587L29.2571 25.4556ZM24.9675 23.2969C24.8215 23.8643 26.5067 23.9488 26.5067 24.5412C26.5067 25.2618 21.3669 24.9741 21.4181 25.9276C21.4497 26.5279 25.0698 26.6295 25.0006 27.2563C24.9013 28.1644 19.3944 27.7111 19.3402 28.5802C19.3011 29.218 22.0275 29.2399 22.0335 29.8213C22.038 30.3106 19.8909 30.5779 15.7803 30.5779C11.0965 30.5779 8.82001 30.3153 9.0788 29.7682C9.32105 29.257 13.4677 29.3524 13.4256 28.549C13.3835 27.7455 6.06207 27.9831 5.84089 27.2047C5.65733 26.5576 8.24676 26.4247 8.23021 25.8104C8.21366 25.1836 4.91405 25.3258 4.84183 24.5677C4.79519 24.0691 6.56611 24.1019 6.48937 23.4751C6.4337 23.0187 5.70246 23.0828 5.26914 22.1434C4.56949 20.5725 4.17679 18.8249 4.17679 16.982C4.17679 10.1997 9.4685 4.70228 15.997 4.70228C22.5255 4.70228 27.8172 10.1997 27.8172 16.982C27.8172 18.6545 27.4952 20.2489 26.9114 21.7026C26.3562 23.0093 25.1059 22.7467 24.9645 23.2969H24.9675Z"/>
</svg>