<svg xmlns="http://www.w3.org/2000/svg" viewBox="0 0 96 96" fill="none">
  <rect width="96" height="96" rx="48" fill="#fff"/>
  <path fill="#0F0F0F" d="M83.846 48.271C83.846 48.637 83.841 48.002 83.83 48.368H66.358V47.569H49.541C49.541 47.401 49.546 47.234 49.546 47.072C49.546 46.91 49.546 46.738 49.541 46.576H66.358V45.781H83.815C83.836 46.278 83.846 46.774 83.846 47.271ZM49.245 43.67L65.702 41.638L65.801 42.432L83.18 40.284C83.013 39.427 82.816 38.581 82.592 37.75L65.484 39.866L65.583 40.66L49.047 42.704C49.12 43.028 49.187 43.352 49.245 43.681V43.67ZM48.386 40.472L64.115 36.527L64.308 37.3L81 33.115C80.656 32.305 80.287 31.505 79.891 30.727L63.689 34.792L63.881 35.565L48.022 39.547C48.152 39.856 48.272 40.164 48.386 40.477V40.472ZM46.992 37.478L61.696 31.902L61.977 32.65L77.534 26.75C77.03 26.008 76.499 25.287 75.937 24.586L61.066 30.225L61.347 30.972L46.466 36.616C46.648 36.898 46.825 37.185 46.992 37.478ZM45.061 34.708L58.048 27.91L58.413 28.621L72.773 21.101C72.113 20.458 71.426 19.847 70.718 19.256L57.221 26.321L57.585 27.032L44.38 33.946C44.609 34.196 44.837 34.447 45.056 34.708H45.061ZM41.929 31.719L53.688 24.21L54.115 24.884L67.092 16.597C66.275 16.074 65.442 15.588 64.584 15.133L52.736 22.7L53.163 23.374L41.065 31.098C41.362 31.296 41.648 31.505 41.934 31.719H41.929ZM39.15 28.974L49.005 20.859L49.51 21.475L60.608 12.331C59.667 11.97 58.699 11.646 57.721 11.364L47.876 19.474L48.381 20.091L38.167 28.504C38.5 28.65 38.828 28.807 39.15 28.974ZM35.472 27.537L43.256 19.756L43.812 20.321L53.704 10.449C52.632 10.272 51.544 10.141 50.441 10.057L42.007 18.486L42.564 19.051L34.343 27.265C34.722 27.344 35.097 27.433 35.472 27.537ZM31.169 26.884L37.376 19.328L37.99 19.835L46.071 10C44.843 10.057 43.63 10.178 42.439 10.355L36.002 18.188L36.616 18.695L29.894 26.879C30.081 26.873 30.274 26.868 30.461 26.868C30.701 26.868 30.934 26.868 31.169 26.879V26.884ZM27.448 27.109L32.23 19.678L32.896 20.111L38.677 11.123C37.355 11.468 36.065 11.886 34.806 12.372L30.737 18.701L31.403 19.134L26.106 27.37C26.548 27.265 26.996 27.176 27.448 27.103V27.109ZM23.317 28.263L26.756 21.789L27.454 22.165L32.006 13.6C30.544 14.316 29.139 15.126 27.797 16.025L25.18 20.948L25.882 21.324L21.834 28.943C22.313 28.697 22.807 28.472 23.312 28.269L23.317 28.263ZM20.351 29.784L21.813 25.614L22.563 25.881L25.404 17.781C23.962 18.931 22.609 20.185 21.355 21.538L20.133 25.024L20.882 25.29L18.967 30.746C19.415 30.406 19.873 30.087 20.346 29.789L20.351 29.784ZM16.704 32.768L17.349 29.737L18.124 29.904L19.425 23.801C18.057 25.546 16.844 27.422 15.809 29.403L16.386 29.528L15.2 34.545C15.663 33.923 16.168 33.327 16.704 32.768ZM14.024 36.311V32.298C13.056 34.863 12.369 38.056 12 41.186C12.453 39.451 13.14 37.816 14.024 36.311ZM12.026 51.063C12.406 53.733 13.072 56.309 13.998 58.76V55.797C13.145 54.334 12.474 52.745 12.026 51.063ZM15.325 57.777L16.36 62.627L15.783 62.752C16.818 64.738 18.031 66.609 19.399 68.354L18.098 62.251L17.323 62.418L16.667 59.35C16.194 58.849 15.741 58.326 15.325 57.772V57.777ZM18.931 61.383L20.856 66.87L20.106 67.136L21.329 70.622C22.583 71.975 23.936 73.229 25.378 74.379L22.537 66.279L21.787 66.546L20.32 62.355C19.846 62.052 19.383 61.733 18.936 61.394L18.931 61.383ZM21.803 63.196L25.861 70.836L25.159 71.212L27.776 76.135C29.119 77.034 30.523 77.844 31.986 78.56L27.433 69.995L26.73 70.371L23.281 63.881C22.776 63.677 22.282 63.447 21.798 63.202L21.803 63.196ZM26.075 64.774L31.377 73.02L30.711 73.454L34.78 79.782C36.039 80.268 37.329 80.686 38.651 81.031L32.87 72.043L32.204 72.477L27.417 65.036C26.964 64.963 26.512 64.874 26.07 64.769L26.075 64.774ZM29.863 65.276L36.585 73.459L35.971 73.966L42.408 81.799C43.599 81.977 44.811 82.097 46.039 82.155L37.959 72.315L37.345 72.822L31.137 65.266C30.914 65.276 30.685 65.276 30.456 65.276C30.259 65.276 30.055 65.276 29.857 65.266L29.863 65.276ZM34.322 64.889L42.538 73.099L41.981 73.663L50.415 82.092C51.518 82.008 52.606 81.878 53.678 81.7L43.792 71.824L43.23 72.393L35.451 64.618C35.081 64.717 34.702 64.811 34.322 64.889ZM38.151 63.661L48.355 72.069L47.85 72.686L57.695 80.796C58.673 80.514 59.641 80.19 60.582 79.829L49.479 70.685L48.974 71.301L39.13 63.191C38.807 63.358 38.479 63.515 38.146 63.661H38.151ZM41.044 62.062L53.126 69.781L52.7 70.455L64.547 78.021C65.406 77.567 66.243 77.075 67.055 76.558L54.078 68.27L53.652 68.944L41.908 61.446C41.622 61.66 41.336 61.869 41.039 62.068L41.044 62.062ZM44.374 59.22L57.565 66.123L57.2 66.833L70.697 73.898C71.405 73.308 72.092 72.696 72.753 72.054L58.392 64.534L58.028 65.245L45.056 58.457C44.837 58.718 44.614 58.974 44.38 59.22H44.374ZM46.461 56.544L61.321 62.183L61.04 62.93L75.911 68.568C76.468 67.868 76.998 67.147 77.508 66.405L61.951 60.505L61.67 61.252L46.986 55.682C46.82 55.975 46.643 56.262 46.461 56.544ZM48.017 53.618L63.85 57.589L63.657 58.363L79.86 62.428C80.261 61.65 80.63 60.85 80.974 60.04L64.282 55.854L64.089 56.628L48.381 52.688C48.266 53.001 48.142 53.31 48.017 53.618ZM49.047 50.462L65.557 52.5L65.458 53.294L82.566 55.41C82.79 54.574 82.987 53.728 83.154 52.876L65.775 50.728L65.676 51.522L49.245 49.49C49.187 49.819 49.12 50.143 49.047 50.467V50.462Z"/>
</svg>