<svg xmlns="http://www.w3.org/2000/svg" viewBox="0 0 48 48" role="img" aria-label="Bitcoin">
  <rect width="48" height="48" rx="8" fill="#fff"/>
  <circle cx="24" cy="24" r="16" fill="#F7931A"/>
  <path fill="#fff" d="M27.2 20.1c.3-2-1.2-3.1-3.3-3.8l.7-2.7-1.6-.4-.7 2.6c-.4-.1-.9-.2-1.3-.3l.7-2.7-1.6-.4-.7 2.7c-.3-.1-.7-.2-1-.2v-.1l-2.2-.6-.4 1.7s1.2.3 1.2.3c.7.2.8.6.8 1l-.8 3.1c0 .1.1.1.2.1h-.2l-1.1 4.4c-.1.2-.3.5-.8.4 0 0-1.2-.3-1.2-.3l-.8 1.8 2.1.5c.4.1.8.2 1.1.3l-.7 2.8 1.6.4.7-2.8c.4.1.9.2 1.3.3l-.7 2.8 1.6.4.7-2.8c2.9.5 5.1.3 6-2.3.7-2.1 0-3.3-1.5-4.1 1.1-.2 1.9-1 2.1-2.5zm-3.8 5.5c.5 2.1-2.8 2.9-4 3.2l.7-2.9c1.2-.3 4.8-.9 3.3-.3zm.5-5.5c.5 1.9-2.5 2.5-3.6 2.8l.6-2.5c1.1-.3 3.6-.7 3-.3z"/>
</svg>